name rise45.9887peak57.8056fall74.9286.mot
datacolumns 19
datarows 15
range 19.75160400000000 19.77492800000000
endheader
time	ground_force1_vx	ground_force1_vy	ground_force1_vz	ground_force1_px	ground_force1_py	ground_force1_pz	ground_force2_vx	ground_force2_vy	ground_force2_vz	ground_force2_px	ground_force2_py	ground_force2_pz	ground_torque1_x	ground_torque1_y	ground_torque1_z	ground_torque2_x	ground_torque2_y	ground_torque2_z	
19.75160400000000	1.97282300000000	721.77709500000003	41.09684600000000	0.19560500000000	0.00000000000000	0.10488800000000	0.00000000000000	0.00000000000000	0.00000000000000	0.00000000000000	0.00000000000000	0.00000000000000	0.00000000000000	15.75241900000000	0.00000000000000	0.00000000000000	0.00000000000000	0.00000000000000	
19.75326500000000	1.41344900000000	722.87579700000003	41.14662800000000	0.19452600000000	0.00000000000000	0.10488800000000	0.00000000000000	0.00000000000000	0.00000000000000	0.00000000000000	0.00000000000000	0.00000000000000	0.00000000000000	15.82884400000000	0.00000000000000	0.00000000000000	0.00000000000000	0.00000000000000	
19.75492600000000	0.84931600000000	723.98752300000001	41.19774000000000	0.19343300000000	0.00000000000000	0.10488900000000	0.00000000000000	0.00000000000000	0.00000000000000	0.00000000000000	0.00000000000000	0.00000000000000	0.00000000000000	15.90569100000000	0.00000000000000	0.00000000000000	0.00000000000000	0.00000000000000	
19.75661200000000	0.28098500000000	725.11071800000002	41.24992100000000	0.19232800000000	0.00000000000000	0.10489000000000	0.00000000000000	0.00000000000000	0.00000000000000	0.00000000000000	0.00000000000000	0.00000000000000	0.00000000000000	15.98280800000000	0.00000000000000	0.00000000000000	0.00000000000000	0.00000000000000	
19.75825700000000	-0.29097000000000	726.24387200000001	41.30291700000000	0.19121400000000	0.00000000000000	0.10489100000000	0.00000000000000	0.00000000000000	0.00000000000000	0.00000000000000	0.00000000000000	0.00000000000000	0.00000000000000	16.06005000000000	0.00000000000000	0.00000000000000	0.00000000000000	0.00000000000000	
19.75992900000000	-0.86596400000000	727.38551600000005	41.35648600000000	0.19009100000000	0.00000000000000	0.10489300000000	0.00000000000000	0.00000000000000	0.00000000000000	0.00000000000000	0.00000000000000	0.00000000000000	0.00000000000000	16.13727800000000	0.00000000000000	0.00000000000000	0.00000000000000	0.00000000000000	
19.76159400000000	-1.44340300000000	728.53422999999998	41.41039700000000	0.18896300000000	0.00000000000000	0.10489500000000	0.00000000000000	0.00000000000000	0.00000000000000	0.00000000000000	0.00000000000000	0.00000000000000	0.00000000000000	16.21435900000000	0.00000000000000	0.00000000000000	0.00000000000000	0.00000000000000	
19.76325500000000	-2.02269000000000	729.68864099999996	41.46443200000000	0.18783000000000	0.00000000000000	0.10489700000000	0.00000000000000	0.00000000000000	0.00000000000000	0.00000000000000	0.00000000000000	0.00000000000000	0.00000000000000	16.29116900000000	0.00000000000000	0.00000000000000	0.00000000000000	0.00000000000000	
19.76492200000000	-2.60322300000000	730.84742700000004	41.51838500000000	0.18669500000000	0.00000000000000	0.10489900000000	0.00000000000000	0.00000000000000	0.00000000000000	0.00000000000000	0.00000000000000	0.00000000000000	0.00000000000000	16.36758900000000	0.00000000000000	0.00000000000000	0.00000000000000	0.00000000000000	
19.76659600000000	-3.18440500000000	732.00931600000001	41.57206300000000	0.18555900000000	0.00000000000000	0.10490100000000	0.00000000000000	0.00000000000000	0.00000000000000	0.00000000000000	0.00000000000000	0.00000000000000	0.00000000000000	16.44350800000000	0.00000000000000	0.00000000000000	0.00000000000000	0.00000000000000	
19.76826100000000	-3.76564400000000	733.17309299999999	41.62528800000000	0.18442400000000	0.00000000000000	0.10490300000000	0.00000000000000	0.00000000000000	0.00000000000000	0.00000000000000	0.00000000000000	0.00000000000000	0.00000000000000	16.51882000000000	0.00000000000000	0.00000000000000	0.00000000000000	0.00000000000000	
19.76993000000000	-4.34635400000000	734.33759499999996	41.67789300000000	0.18329300000000	0.00000000000000	0.10490400000000	0.00000000000000	0.00000000000000	0.00000000000000	0.00000000000000	0.00000000000000	0.00000000000000	0.00000000000000	16.59342800000000	0.00000000000000	0.00000000000000	0.00000000000000	0.00000000000000	
19.77159200000000	-4.92596000000000	735.50171499999999	41.72972600000000	0.18216700000000	0.00000000000000	0.10490500000000	0.00000000000000	0.00000000000000	0.00000000000000	0.00000000000000	0.00000000000000	0.00000000000000	0.00000000000000	16.66724300000000	0.00000000000000	0.00000000000000	0.00000000000000	0.00000000000000	
19.77326700000000	-5.50390400000000	736.66440100000000	41.78065100000000	0.18104700000000	0.00000000000000	0.10490500000000	0.00000000000000	0.00000000000000	0.00000000000000	0.00000000000000	0.00000000000000	0.00000000000000	0.00000000000000	16.74018000000000	0.00000000000000	0.00000000000000	0.00000000000000	0.00000000000000	
19.77492800000000	-6.07964100000000	737.82465900000000	41.83054600000000	0.17993500000000	0.00000000000000	0.10490500000000	0.00000000000000	0.00000000000000	0.00000000000000	0.00000000000000	0.00000000000000	0.00000000000000	0.00000000000000	16.81216200000000	0.00000000000000	0.00000000000000	0.00000000000000	0.00000000000000	
